<svg xmlns="http://www.w3.org/2000/svg" xmlns:xlink="http://www.w3.org/1999/xlink" width="32" height="32" viewBox="0 0 32 32"><defs><style>.a{clip-path:url(#b);}.b{fill:rgba(255,255,255,0);}</style><clipPath id="b"><rect width="32" height="32"/></clipPath></defs><g id="a" class="a"><rect class="b" width="32" height="32"/><path d="M28.134,2.25H3.376A3.376,3.376,0,0,0,0,5.626V30.384A3.376,3.376,0,0,0,3.376,33.76H13.03V23.048H8.6V18.005H13.03V14.162c0-4.371,2.6-6.786,6.588-6.786a26.845,26.845,0,0,1,3.905.34v4.29h-2.2a2.521,2.521,0,0,0-2.843,2.724v3.274h4.838l-.774,5.042H18.481V33.76h9.654a3.376,3.376,0,0,0,3.376-3.376V5.626A3.376,3.376,0,0,0,28.134,2.25Z" transform="translate(0.245 -2.005)"/></g></svg>