<?xml version="1.0" standalone="no"?>
<!DOCTYPE svg PUBLIC "-//W3C//DTD SVG 20010904//EN"
 "http://www.w3.org/TR/2001/REC-SVG-20010904/DTD/svg10.dtd">
<svg version="1.0" xmlns="http://www.w3.org/2000/svg"
 width="1774.000000pt" height="1774.000000pt" viewBox="0 0 1774.000000 1774.000000"
 preserveAspectRatio="xMidYMid meet">
<metadata>
Created by potrace 1.11, written by Peter Selinger 2001-2013
</metadata>
<g transform="translate(0.000000,1774.000000) scale(0.100000,-0.100000)"
fill="#000000" stroke="none">
<path d="M8305 13903 c-473 -504 -861 -920 -863 -925 -2 -4 348 -8 777 -8
l780 0 1133 901 c623 496 1144 912 1158 925 l25 24 -1076 0 -1075 0 -859 -917z"/>
<path d="M5190 7730 l0 -4500 3485 0 3485 0 0 835 0 835 -2450 0 -2450 0 0
1045 0 1045 2090 0 2090 0 0 805 0 805 -2090 0 -2090 0 0 980 0 980 2365 0
2365 0 0 835 0 835 -3400 0 -3400 0 0 -4500z"/>
</g>
</svg>
